<svg width="719" height="1080" viewBox="0 0 719 1080" fill="none" xmlns="http://www.w3.org/2000/svg">
<path fill-rule="evenodd" clip-rule="evenodd" d="M584.812 1013.44H628.501V1080H629.749V1013.44H673.438V1080H674.687V1013.44H719V1011.56H674.687V945.937H719V944.062H674.687V878.438H719V876.563H674.687V810.938H719V809.063H674.687V743.438H719V741.563H674.687V675.938H719V674.063H674.687V608.438H719V606.562H674.687V540.937H719V539.063H674.687V473.438H719V471.562H674.687V405.937H719V404.063H674.687V338.438H719V336.562H674.687V270.938H719V269.063H674.687V203.437H719V201.563H674.687L674.687 135.937H719V134.062H674.687V68.4375H719V66.5625H674.687V-2.47333e-05H673.438V66.5625H629.749V-2.47333e-05H628.501V66.5625H584.812V-2.47333e-05H583.563V66.5625H539.874V-2.47333e-05H538.626V66.5625H494.937V-2.47333e-05H493.688V66.5625H449.999V-2.47333e-05H448.751V66.5625H405.062V-2.47333e-05H403.813V66.5625H360.124V-2.47333e-05H358.876V66.5625H315.187V-2.47333e-05H313.938V66.5625H270.249V-2.47333e-05H269.001V66.5625H225.312V-2.47333e-05H224.063V66.5625H180.374V-2.47333e-05H179.126V66.5625H135.437V-2.47333e-05H134.188V66.5625H90.4991L90.4991 -2.47333e-05H89.2509L89.2509 66.5625H45.5616V-2.47333e-05H44.3134V66.5625H0L0 68.4375H44.3134L44.3134 134.062H0L0 135.937H44.3134V201.563H0L0 203.437H44.3134L44.3134 269.063H0L0 270.938H44.3134L44.3134 336.562H0L0 338.438H44.3134V404.063H0L0 405.937H44.3134L44.3134 471.562H0L0 473.438H44.3133V539.063H0L0 540.937H44.3133L44.3133 606.562H0L0 608.438H44.3133L44.3133 674.063H0L0 675.938H44.3133V741.563H0L0 743.438H44.3133L44.3133 809.063H0L0 810.938H44.3133V876.563H0L0 878.438H44.3133L44.3133 944.062H0L0 945.937H44.3133V1011.56H0L0 1013.44H44.3133L44.3133 1080H45.5616L45.5616 1013.44H89.2508V1080H90.4991V1013.44H134.188V1080H135.437V1013.44H179.126V1080H180.374V1013.44H224.063V1080H225.312V1013.44H269.001V1080H270.249V1013.44H313.938V1080H315.187V1013.44H358.876V1080H360.124V1013.44H403.813V1080H405.062V1013.44H448.751V1080H449.999V1013.44H493.688V1080H494.937V1013.44H538.626V1080H539.874V1013.44H583.563V1080H584.812V1013.44ZM673.438 68.4375H629.749V134.062H673.438V68.4375ZM673.438 135.937H629.749L629.749 201.563H673.438L673.438 135.937ZM673.438 203.437H629.749V269.063H673.438V203.437ZM673.438 270.938H629.749V336.562H673.438V270.938ZM673.438 338.438H629.749V404.063H673.438V338.438ZM673.438 405.937H629.749V471.562H673.438V405.937ZM673.438 473.438H629.749V539.063H673.438V473.438ZM673.438 540.937H629.749V606.562H673.438V540.937ZM673.438 608.438H629.749V674.063H673.438V608.438ZM673.438 675.938H629.749V741.563H673.438V675.938ZM673.438 743.438H629.749V809.063H673.438V743.438ZM673.438 810.938H629.749V876.563H673.438V810.938ZM673.438 878.438H629.749V944.062H673.438V878.438ZM673.438 945.937H629.749V1011.56H673.438V945.937ZM628.501 945.937V1011.56H584.812V945.937H628.501ZM628.501 878.438V944.062H584.812V878.438H628.501ZM628.501 810.938V876.563H584.812V810.938H628.501ZM628.501 743.438V809.063H584.812V743.438H628.501ZM628.501 675.938V741.563H584.812V675.938H628.501ZM628.501 608.438V674.063H584.812V608.438H628.501ZM628.501 540.937V606.562H584.812V540.937H628.501ZM628.501 473.438V539.063H584.812V473.438H628.501ZM628.501 405.937V471.562H584.812V405.937H628.501ZM628.501 338.438V404.063H584.812V338.438H628.501ZM628.501 270.938V336.562H584.812V270.938H628.501ZM628.501 203.437V269.063H584.812V203.437H628.501ZM628.501 135.937L628.501 201.563H584.812L584.812 135.937H628.501ZM628.501 68.4375V134.062H584.812V68.4375H628.501ZM45.5616 68.4375L45.5616 134.062H89.2509V68.4375H45.5616ZM90.4991 68.4375V134.062H134.188V68.4375H90.4991ZM135.437 68.4375V134.062H179.126V68.4375H135.437ZM180.374 68.4375V134.062H224.063V68.4375H180.374ZM225.312 68.4375V134.062H269.001V68.4375H225.312ZM270.249 68.4375V134.062H313.938V68.4375H270.249ZM315.187 68.4375V134.062H358.876V68.4375H315.187ZM360.124 68.4375V134.062H403.813V68.4375H360.124ZM405.062 68.4375V134.062H448.751V68.4375H405.062ZM449.999 68.4375V134.062H493.688V68.4375H449.999ZM494.937 68.4375V134.062H538.626V68.4375H494.937ZM539.874 68.4375V134.062H583.563V68.4375H539.874ZM539.874 135.937H583.563L583.563 201.563H539.874L539.874 135.937ZM494.937 135.937H538.626L538.626 201.563H494.937V135.937ZM449.999 135.937H493.688V201.563H449.999V135.937ZM405.062 135.937H448.751V201.563H405.062V135.937ZM360.124 135.937H403.813V201.563H360.124V135.937ZM315.187 135.937H358.876V201.563H315.187V135.937ZM270.249 135.937H313.938V201.563H270.249V135.937ZM225.312 135.937H269.001V201.563H225.312V135.937ZM180.374 135.937H224.063V201.563H180.374V135.937ZM135.437 135.937H179.126V201.563H135.437V135.937ZM90.4991 135.937H134.188V201.563H90.4991V135.937ZM45.5616 135.937H89.2509V201.563H45.5616V135.937ZM583.563 1011.56V945.937H539.874V1011.56H583.563ZM583.563 944.062V878.438H539.874V944.062H583.563ZM583.563 876.563V810.938H539.874V876.563H583.563ZM583.563 809.063V743.438H539.874V809.063H583.563ZM583.563 741.563V675.938H539.874V741.563H583.563ZM583.563 674.063V608.438H539.874V674.063H583.563ZM583.563 606.562V540.937H539.874V606.562H583.563ZM583.563 539.063V473.438H539.874V539.063H583.563ZM583.563 471.562V405.937H539.874V471.562H583.563ZM583.563 404.063V338.438H539.874V404.063H583.563ZM583.563 336.562V270.938H539.874V336.562H583.563ZM583.563 269.063V203.437H539.874V269.063H583.563ZM494.937 203.437H538.626V269.063H494.937V203.437ZM449.999 203.437H493.688V269.063H449.999V203.437ZM405.062 203.437H448.751V269.063H405.062V203.437ZM360.124 203.437H403.813V269.063H360.124V203.437ZM315.187 203.437H358.876V269.063H315.187V203.437ZM270.249 203.437H313.938V269.063H270.249V203.437ZM225.312 203.437H269.001V269.063H225.312V203.437ZM180.374 203.437H224.063V269.063H180.374V203.437ZM135.437 203.437H179.126V269.063H135.437V203.437ZM90.4991 203.437H134.188V269.063H90.4991L90.4991 203.437ZM45.5616 203.437H89.2508L89.2508 269.063H45.5616L45.5616 203.437ZM538.626 1011.56V945.937H494.937V1011.56H538.626ZM538.626 944.062V878.438H494.937V944.062H538.626ZM538.626 876.563V810.938H494.937V876.563H538.626ZM538.626 809.063V743.438H494.937V809.063H538.626ZM538.626 741.563V675.938H494.937V741.563H538.626ZM538.626 674.063V608.438H494.937L494.937 674.063H538.626ZM538.626 606.562V540.937H494.937V606.562H538.626ZM538.626 539.063V473.438H494.937V539.063H538.626ZM538.626 471.562V405.937H494.937V471.562H538.626ZM538.626 404.063V338.438H494.937V404.063H538.626ZM538.626 336.562V270.938H494.937V336.562H538.626ZM449.999 270.938H493.688V336.562H449.999V270.938ZM405.062 270.938H448.751V336.562H405.062V270.938ZM360.124 270.938H403.813V336.562H360.124V270.938ZM315.187 270.938H358.876V336.562H315.187V270.938ZM270.249 270.938H313.938V336.562H270.249V270.938ZM225.312 270.938H269.001V336.562H225.312V270.938ZM180.374 270.938H224.063V336.562H180.374V270.938ZM135.437 270.938H179.126V336.562H135.437V270.938ZM90.4991 270.938H134.188V336.562H90.4991V270.938ZM45.5616 270.938H89.2508V336.562H45.5616L45.5616 270.938ZM493.688 1011.56V945.937H449.999V1011.56H493.688ZM493.688 944.062V878.438H449.999V944.062H493.688ZM493.688 876.563V810.938H449.999V876.563H493.688ZM493.688 809.063V743.438H449.999V809.063H493.688ZM493.688 741.563V675.938H449.999V741.563H493.688ZM493.688 674.063L493.688 608.438H449.999L449.999 674.063H493.688ZM493.688 606.562V540.937H449.999V606.562H493.688ZM493.688 539.063V473.438H449.999V539.063H493.688ZM493.688 471.562V405.937H449.999V471.562H493.688ZM493.688 404.063V338.438H449.999V404.063H493.688ZM405.062 338.438H448.751V404.063H405.062V338.438ZM360.124 338.438H403.813V404.063H360.124V338.438ZM315.187 338.438H358.876V404.063H315.187V338.438ZM270.249 338.438H313.938V404.063H270.249V338.438ZM225.312 338.438H269.001V404.063H225.312L225.312 338.438ZM180.374 338.438H224.063L224.063 404.063H180.374L180.374 338.438ZM135.437 338.438H179.126L179.126 404.063H135.437L135.437 338.438ZM90.4991 338.438H134.188L134.188 404.063H90.4991V338.438ZM45.5616 338.438H89.2508V404.063H45.5616V338.438ZM448.751 1011.56V945.937H405.062V1011.56H448.751ZM448.751 944.062V878.438H405.062V944.062H448.751ZM448.751 876.563V810.938H405.062V876.563H448.751ZM448.751 809.063V743.438H405.062V809.063H448.751ZM448.751 741.563V675.938H405.062V741.563H448.751ZM448.751 674.063L448.751 608.438H405.062L405.062 674.063H448.751ZM448.751 606.562V540.937H405.062V606.562H448.751ZM448.751 539.063V473.438H405.062V539.063H448.751ZM448.751 471.562V405.937H405.062V471.562H448.751ZM360.124 405.937H403.813V471.562H360.124V405.937ZM315.187 405.937H358.876V471.562H315.187V405.937ZM270.249 405.937H313.938V471.562H270.249V405.937ZM225.312 405.937H269.001V471.562H225.312V405.937ZM180.374 405.937H224.063V471.562H180.374V405.937ZM135.437 405.937H179.126V471.562H135.437V405.937ZM90.4991 405.937H134.188V471.562H90.4991V405.937ZM45.5616 405.937H89.2508V471.562H45.5616L45.5616 405.937ZM403.813 1011.56V945.937H360.124V1011.56H403.813ZM403.813 944.062V878.438H360.124V944.062H403.813ZM403.813 876.563V810.938H360.124V876.563H403.813ZM403.813 809.063V743.438H360.124V809.063H403.813ZM403.813 741.563V675.938H360.124V741.563H403.813ZM403.813 674.063L403.813 608.438H360.124L360.124 674.063H403.813ZM403.813 606.562V540.937H360.124V606.562H403.813ZM403.813 539.063V473.438H360.124V539.063H403.813ZM315.187 473.438H358.876V539.063H315.187V473.438ZM270.249 473.438H313.938V539.063H270.249V473.438ZM225.312 473.438H269.001V539.063H225.312V473.438ZM180.374 473.438H224.063V539.063H180.374V473.438ZM135.437 473.438H179.126V539.063H135.437V473.438ZM90.4991 473.438H134.188V539.063H90.4991L90.4991 473.438ZM45.5616 473.438H89.2508L89.2508 539.063H45.5616V473.438ZM358.876 1011.56V945.937H315.187V1011.56H358.876ZM358.876 944.062V878.438H315.187V944.062H358.876ZM358.876 876.563V810.938H315.187V876.563H358.876ZM358.876 809.063V743.438H315.187V809.063H358.876ZM358.876 741.563V675.938H315.187V741.563H358.876ZM358.876 674.063L358.876 608.438H315.187L315.187 674.063H358.876ZM358.876 606.562V540.937H315.187V606.562H358.876ZM270.249 540.937H313.938V606.562H270.249V540.937ZM225.312 540.937H269.001V606.562H225.312V540.937ZM180.374 540.937H224.063V606.562H180.374V540.937ZM135.437 540.937H179.126V606.562H135.437V540.937ZM90.4991 540.937H134.188V606.562H90.4991V540.937ZM45.5616 540.937H89.2508V606.562H45.5616L45.5616 540.937ZM313.938 1011.56V945.937H270.249V1011.56H313.938ZM313.938 944.062V878.438H270.249V944.062H313.938ZM313.938 876.563V810.938H270.249V876.563H313.938ZM313.938 809.063V743.438H270.249V809.063H313.938ZM313.938 741.563V675.938H270.249V741.563H313.938ZM313.938 674.063L313.938 608.438H270.249L270.249 674.063H313.938ZM225.312 608.438H269.001L269.001 674.063H225.312V608.438ZM180.374 608.438H224.063V674.063H180.374V608.438ZM135.437 608.438H179.126V674.063H135.437V608.438ZM90.4991 608.438H134.188V674.063H90.4991V608.438ZM45.5616 608.438H89.2508V674.063H45.5616L45.5616 608.438ZM269.001 1011.56V945.937H225.312V1011.56H269.001ZM269.001 944.062V878.438H225.312V944.062H269.001ZM269.001 876.563V810.938H225.312L225.312 876.563H269.001ZM269.001 809.063V743.438H225.312V809.063H269.001ZM269.001 741.563V675.938H225.312V741.563H269.001ZM180.374 675.938H224.063V741.563H180.374V675.938ZM135.437 675.938H179.126V741.563H135.437V675.938ZM90.4991 675.938H134.188V741.563H90.4991L90.4991 675.938ZM45.5616 675.938H89.2508L89.2508 741.563H45.5616V675.938ZM224.063 1011.56V945.937H180.374V1011.56H224.063ZM224.063 944.062V878.438H180.374V944.062H224.063ZM224.063 876.563L224.063 810.938H180.374L180.374 876.563H224.063ZM224.063 809.063V743.438H180.374V809.063H224.063ZM135.437 743.438H179.126V809.063H135.437V743.438ZM90.4991 743.438H134.188V809.063H90.4991V743.438ZM45.5616 743.438H89.2508V809.063H45.5616L45.5616 743.438ZM179.126 1011.56V945.937H135.437V1011.56H179.126ZM179.126 944.062V878.438H135.437L135.437 944.062H179.126ZM179.126 876.563L179.126 810.938H135.437L135.437 876.563H179.126ZM90.4991 810.938H134.188L134.188 876.563H90.4991V810.938ZM45.5616 810.938H89.2508V876.563H45.5616V810.938ZM134.188 1011.56V945.937H90.4991L90.4991 1011.56H134.188ZM134.188 944.062L134.188 878.438H90.4991V944.062H134.188ZM45.5616 878.438H89.2508V944.062H45.5616L45.5616 878.438ZM89.2508 1011.56L89.2508 945.937H45.5616V1011.56H89.2508Z" fill="url(#paint0_radial_159_190)"/>
<defs>
<radialGradient id="paint0_radial_159_190" cx="0" cy="0" r="1" gradientUnits="userSpaceOnUse" gradientTransform="translate(359.5 540) scale(359.5 540)">
<stop stop-color="#640DFB"/>
<stop offset="1" stop-color="#640DFB" stop-opacity="0"/>
</radialGradient>
</defs>
</svg>
