<svg width="1920" height="1080" viewBox="0 0 1920 1080" fill="none" xmlns="http://www.w3.org/2000/svg">
<path fill-rule="evenodd" clip-rule="evenodd" d="M82.6754 948.632V1027.87H-38V1030.13H82.6754V1109.37H-38V1111.63H82.6754V1192H86.0747V1111.63H205.05V1192H208.45V1111.63H327.425V1192H330.825V1111.63H449.8V1192H453.2V1111.63H572.175V1192H575.575V1111.63H694.55V1192H697.95V1111.63H816.925V1192H820.325V1111.63H939.3V1192H942.7V1111.63H1061.68V1192H1065.07V1111.63H1184.05V1192H1187.45V1111.63H1306.43V1192H1309.82V1111.63H1428.8V1192H1432.2V1111.63H1551.18V1192H1554.57V1111.63H1673.55V1192H1676.95V1111.63H1795.93V1192H1799.32V1111.63H1920V1109.37H1799.32V1030.13H1920V1027.87H1799.32V948.632H1920V946.368H1799.32V867.132H1920V864.868H1799.32V785.632H1920V783.368H1799.32V704.132H1920V701.868H1799.32V622.632H1920V620.368H1799.32V541.132H1920V538.868H1799.32V459.632H1920V457.368H1799.32V378.132H1920V375.868H1799.32V296.632H1920V294.368H1799.32V215.132H1920V212.868H1799.32V133.632H1920V131.368H1799.32V52.1319H1920V49.8681H1799.32V-29.3681H1920V-31.6319H1799.32V-112H1795.93V-31.632H1676.95V-112H1673.55V-31.632H1554.57V-112H1551.18V-31.632H1432.2V-112H1428.8V-31.632H1309.82V-112H1306.43V-31.632H1187.45V-112H1184.05V-31.632H1065.07V-112H1061.68V-31.632H942.7V-112H939.3V-31.632H820.325V-112H816.925V-31.632H697.95V-112H694.55V-31.632H575.575V-112H572.175V-31.632H453.2V-112H449.8V-31.632H330.825V-112H327.425V-31.632H208.45V-112H205.05V-31.632H86.0747V-112H82.6754V-31.632H-38V-29.3681H82.6754V49.868H-38V52.1319H82.6754V131.368H-38V133.632H82.6754V212.868H-38V215.132H82.6754V294.368H-38V296.632H82.6754V375.868H-38V378.132H82.6754V457.368H-38V459.632H82.6754V538.868H-38V541.132H82.6754V620.368H-38V622.632H82.6754V701.868H-38V704.132H82.6754V783.368H-38V785.632H82.6754V864.868H-38V867.132H82.6754V946.368H-38V948.632H82.6754ZM1795.93 1109.37V1030.13H1676.95V1109.37H1795.93ZM1673.55 1109.37V1030.13H1554.57V1109.37H1673.55ZM1551.18 1109.37V1030.13H1432.2V1109.37H1551.18ZM1428.8 1109.37V1030.13H1309.82V1109.37H1428.8ZM1306.43 1109.37V1030.13H1187.45V1109.37H1306.43ZM1184.05 1109.37V1030.13H1065.07V1109.37H1184.05ZM1061.68 1109.37V1030.13H942.7V1109.37H1061.68ZM939.3 1109.37V1030.13H820.325V1109.37H939.3ZM816.925 1109.37V1030.13H697.95V1109.37H816.925ZM694.55 1109.37V1030.13H575.575V1109.37H694.55ZM572.175 1109.37V1030.13H453.2V1109.37H572.175ZM449.8 1109.37V1030.13H330.825V1109.37H449.8ZM327.425 1109.37V1030.13H208.45V1109.37H327.425ZM205.05 1109.37V1030.13H86.0747V1109.37H205.05ZM205.05 1027.87H86.0747V948.632H205.05V1027.87ZM327.425 1027.87H208.45V948.632H327.425V1027.87ZM449.8 1027.87H330.825V948.632H449.8V1027.87ZM572.175 1027.87H453.2V948.632H572.175V1027.87ZM694.55 1027.87H575.575V948.632H694.55V1027.87ZM816.925 1027.87H697.95V948.632H816.925V1027.87ZM939.3 1027.87H820.325V948.632H939.3V1027.87ZM1061.68 1027.87H942.7V948.632H1061.68V1027.87ZM1184.05 1027.87H1065.07V948.632H1184.05V1027.87ZM1306.43 1027.87H1187.45V948.632H1306.43V1027.87ZM1428.8 1027.87H1309.82V948.632H1428.8V1027.87ZM1551.18 1027.87H1432.2V948.632H1551.18V1027.87ZM1673.55 1027.87H1554.57V948.632H1673.55V1027.87ZM1795.93 1027.87H1676.95V948.632H1795.93V1027.87ZM1795.93 -29.3681H1676.95V49.868H1795.93V-29.3681ZM1795.93 52.1319H1676.95V131.368H1795.93V52.1319ZM1795.93 133.632H1676.95V212.868H1795.93V133.632ZM1795.93 215.132H1676.95V294.368H1795.93V215.132ZM1795.93 296.632H1676.95V375.868H1795.93V296.632ZM1795.93 378.132H1676.95V457.368H1795.93V378.132ZM1795.93 459.632H1676.95V538.868H1795.93V459.632ZM1795.93 541.132H1676.95V620.368H1795.93V541.132ZM1795.93 622.632H1676.95V701.868H1795.93V622.632ZM1795.93 704.132H1676.95V783.368H1795.93V704.132ZM1795.93 785.632H1676.95V864.868H1795.93V785.632ZM1795.93 867.132H1676.95V946.368H1795.93V867.132ZM1673.55 867.132V946.368H1554.57V867.132H1673.55ZM1673.55 785.632V864.868H1554.57V785.632H1673.55ZM1673.55 704.132V783.368H1554.57V704.132H1673.55ZM1673.55 622.632V701.868H1554.57V622.632H1673.55ZM1673.55 541.132V620.368H1554.57V541.132H1673.55ZM1673.55 459.632V538.868H1554.57V459.632H1673.55ZM1673.55 378.132V457.368H1554.57V378.132H1673.55ZM1673.55 296.632V375.868H1554.57V296.632H1673.55ZM1673.55 215.132V294.368H1554.57V215.132H1673.55ZM1673.55 133.632V212.868H1554.57V133.632H1673.55ZM1673.55 52.1319V131.368H1554.57V52.1319H1673.55ZM1673.55 -29.3681V49.868H1554.57V-29.3681H1673.55ZM86.0747 946.368H205.05V867.132H86.0747V946.368ZM208.45 946.368H327.425V867.132H208.45V946.368ZM330.825 946.368H449.8V867.132H330.825V946.368ZM453.2 946.368H572.175V867.132H453.2V946.368ZM575.575 946.368H694.55V867.132H575.575V946.368ZM697.95 946.368H816.925V867.132H697.95V946.368ZM820.325 946.368H939.3V867.132H820.325V946.368ZM942.7 946.368H1061.68V867.132H942.7V946.368ZM1065.07 946.368H1184.05V867.132H1065.07V946.368ZM1187.45 946.368H1306.43V867.132H1187.45V946.368ZM1309.82 946.368H1428.8V867.132H1309.82V946.368ZM1432.2 946.368H1551.18V867.132H1432.2V946.368ZM1551.18 785.632V864.868H1432.2V785.632H1551.18ZM1551.18 704.132V783.368H1432.2V704.132H1551.18ZM1551.18 622.632V701.868H1432.2V622.632H1551.18ZM1551.18 541.132V620.368H1432.2V541.132H1551.18ZM1551.18 459.632V538.868H1432.2V459.632H1551.18ZM1551.18 378.132V457.368H1432.2V378.132H1551.18ZM1551.18 296.632V375.868H1432.2V296.632H1551.18ZM1551.18 215.132V294.368H1432.2V215.132H1551.18ZM1551.18 133.632V212.868H1432.2V133.632H1551.18ZM1551.18 52.1319V131.368H1432.2V52.1319H1551.18ZM1551.18 -29.3681V49.868H1432.2V-29.3681H1551.18ZM86.0747 864.868H205.05V785.632H86.0747V864.868ZM208.45 864.868H327.425V785.632H208.45V864.868ZM330.825 864.868H449.8V785.632H330.825V864.868ZM453.2 864.868H572.175V785.632H453.2V864.868ZM575.575 864.868H694.55V785.632H575.575V864.868ZM697.95 864.868H816.925V785.632H697.95V864.868ZM820.325 864.868H939.3V785.632H820.325V864.868ZM942.7 864.868H1061.68V785.632H942.7V864.868ZM1065.07 864.868H1184.05V785.632H1065.07V864.868ZM1187.45 864.868H1306.43V785.632H1187.45V864.868ZM1309.82 864.868H1428.8V785.632H1309.82V864.868ZM1428.8 704.132V783.368H1309.82V704.132H1428.8ZM1428.8 622.632V701.868H1309.82V622.632H1428.8ZM1428.8 541.132V620.368H1309.82V541.132H1428.8ZM1428.8 459.632V538.868H1309.82V459.632H1428.8ZM1428.8 378.132V457.368H1309.82V378.132H1428.8ZM1428.8 296.632V375.868H1309.82V296.632H1428.8ZM1428.8 215.132V294.368H1309.82V215.132H1428.8ZM1428.8 133.632V212.868H1309.82V133.632H1428.8ZM1428.8 52.1319V131.368H1309.82V52.1319H1428.8ZM1428.8 -29.3681V49.868H1309.82V-29.3681H1428.8ZM86.0747 783.368H205.05V704.132H86.0747V783.368ZM208.45 783.368H327.425V704.132H208.45V783.368ZM330.825 783.368H449.8V704.132H330.825V783.368ZM453.2 783.368H572.175V704.132H453.2V783.368ZM575.575 783.368H694.55V704.132H575.575V783.368ZM697.95 783.368H816.925V704.132H697.95V783.368ZM820.325 783.368H939.3V704.132H820.325V783.368ZM942.7 783.368H1061.68V704.132H942.7V783.368ZM1065.07 783.368H1184.05V704.132H1065.07V783.368ZM1187.45 783.368H1306.43V704.132H1187.45V783.368ZM1306.43 622.632V701.868H1187.45V622.632H1306.43ZM1306.43 541.132V620.368H1187.45V541.132H1306.43ZM1306.43 459.632V538.868H1187.45V459.632H1306.43ZM1306.43 378.132V457.368H1187.45V378.132H1306.43ZM1306.43 296.632V375.868H1187.45V296.632H1306.43ZM1306.43 215.132V294.368H1187.45V215.132H1306.43ZM1306.43 133.632V212.868H1187.45V133.632H1306.43ZM1306.43 52.1319V131.368H1187.45V52.1319H1306.43ZM1306.43 -29.3681V49.868H1187.45V-29.3681H1306.43ZM86.0747 701.868H205.05V622.632H86.0747V701.868ZM208.45 701.868H327.425V622.632H208.45V701.868ZM330.825 701.868H449.8V622.632H330.825V701.868ZM453.2 701.868H572.175V622.632H453.2V701.868ZM575.575 701.868H694.55V622.632H575.575V701.868ZM697.95 701.868H816.925V622.632H697.95V701.868ZM820.325 701.868H939.3V622.632H820.325V701.868ZM942.7 701.868H1061.68V622.632H942.7V701.868ZM1065.07 701.868H1184.05V622.632H1065.07V701.868ZM1184.05 541.132V620.368H1065.07V541.132H1184.05ZM1184.05 459.632V538.868H1065.07V459.632H1184.05ZM1184.05 378.132V457.368H1065.07V378.132H1184.05ZM1184.05 296.632V375.868H1065.07V296.632H1184.05ZM1184.05 215.132V294.368H1065.07V215.132H1184.05ZM1184.05 133.632V212.868H1065.07V133.632H1184.05ZM1184.05 52.1319V131.368H1065.07V52.1319H1184.05ZM1184.05 -29.3681V49.868H1065.07V-29.3681H1184.05ZM86.0747 620.368H205.05V541.132H86.0747V620.368ZM208.45 620.368H327.425V541.132H208.45V620.368ZM330.825 620.368H449.8V541.132H330.825V620.368ZM453.2 620.368H572.175V541.132H453.2V620.368ZM575.575 620.368H694.55V541.132H575.575V620.368ZM697.95 620.368H816.925V541.132H697.95V620.368ZM820.325 620.368H939.3V541.132H820.325V620.368ZM942.7 620.368H1061.68V541.132H942.7V620.368ZM1061.68 459.632V538.868H942.7V459.632H1061.68ZM1061.68 378.132V457.368H942.7V378.132H1061.68ZM1061.68 296.632V375.868H942.7V296.632H1061.68ZM1061.68 215.132V294.368H942.7V215.132H1061.68ZM1061.68 133.632V212.868H942.7V133.632H1061.68ZM1061.68 52.1319V131.368H942.7V52.1319H1061.68ZM1061.68 -29.3681V49.868H942.7V-29.3681H1061.68ZM86.0747 538.868H205.05V459.632H86.0747V538.868ZM208.45 538.868H327.425V459.632H208.45V538.868ZM330.825 538.868H449.8V459.632H330.825V538.868ZM453.2 538.868H572.175V459.632H453.2V538.868ZM575.575 538.868H694.55V459.632H575.575V538.868ZM697.95 538.868H816.925V459.632H697.95V538.868ZM820.325 538.868H939.3V459.632H820.325V538.868ZM939.3 378.132V457.368H820.325V378.132H939.3ZM939.3 296.632V375.868H820.325V296.632H939.3ZM939.3 215.132V294.368H820.325V215.132H939.3ZM939.3 133.632V212.868H820.325V133.632H939.3ZM939.3 52.1319V131.368H820.325V52.1319H939.3ZM939.3 -29.3681V49.868H820.325V-29.3681H939.3ZM86.0747 457.368H205.05V378.132H86.0747V457.368ZM208.45 457.368H327.425V378.132H208.45V457.368ZM330.825 457.368H449.8V378.132H330.825V457.368ZM453.2 457.368H572.175V378.132H453.2V457.368ZM575.575 457.368H694.55V378.132H575.575V457.368ZM697.95 457.368H816.925V378.132H697.95V457.368ZM816.925 296.632V375.868H697.95V296.632H816.925ZM816.925 215.132V294.368H697.95V215.132H816.925ZM816.925 133.632V212.868H697.95V133.632H816.925ZM816.925 52.1319V131.368H697.95V52.1319H816.925ZM816.925 -29.3681V49.868H697.95V-29.3681H816.925ZM86.0747 375.868H205.05V296.632H86.0747V375.868ZM208.45 375.868H327.425V296.632H208.45V375.868ZM330.825 375.868H449.8V296.632H330.825V375.868ZM453.2 375.868H572.175V296.632H453.2V375.868ZM575.575 375.868H694.55V296.632H575.575V375.868ZM694.55 215.132V294.368H575.575V215.132H694.55ZM694.55 133.632V212.868H575.575V133.632H694.55ZM694.55 52.1319V131.368H575.575V52.1319H694.55ZM694.55 -29.3681V49.868H575.575V-29.3681H694.55ZM86.0747 294.368H205.05V215.132H86.0747V294.368ZM208.45 294.368H327.425V215.132H208.45V294.368ZM330.825 294.368H449.8V215.132H330.825V294.368ZM453.2 294.368H572.175V215.132H453.2V294.368ZM572.175 133.632V212.868H453.2V133.632H572.175ZM572.175 52.1319V131.368H453.2V52.1319H572.175ZM572.175 -29.3681V49.868H453.2V-29.3681H572.175ZM86.0747 212.868H205.05V133.632H86.0747V212.868ZM208.45 212.868H327.425V133.632L208.45 133.632V212.868ZM330.825 212.868H449.8V133.632H330.825V212.868ZM449.8 52.1319V131.368H330.825V52.1319H449.8ZM449.8 -29.3681V49.868H330.825V-29.3681H449.8ZM86.0747 131.368H205.05V52.1319H86.0747V131.368ZM208.45 131.368L327.425 131.368V52.1319H208.45V131.368ZM327.425 -29.3681V49.868H208.45V-29.3681H327.425ZM86.0747 49.868H205.05V-29.3681H86.0747V49.868Z" fill="url(#paint0_radial_159_190)"/>
<defs>
<radialGradient id="paint0_radial_159_190" cx="0" cy="0" r="1" gradientUnits="userSpaceOnUse" gradientTransform="translate(941 540) rotate(90) scale(652 979)">
<stop stop-color="#640DFB"/>
<stop offset="1" stop-color="#640DFB" stop-opacity="0"/>
</radialGradient>
</defs>
</svg>
