<svg width="95" height="74" viewBox="0 0 95 74" fill="none" xmlns="http://www.w3.org/2000/svg">
<g filter="url(#filter0_d_600_100)">
<line x1="14.7842" y1="3.10156" x2="89.2764" y2="3.10156" stroke="#6117AB"/>
<line x1="15.2842" y1="1.54102" x2="15.2842" y2="17.9274" stroke="#6117AB"/>
<path fill-rule="evenodd" clip-rule="evenodd" d="M15.6918 16.6582L4.76465 29.0007L5.28946 29.8519L15.8736 17.8969H15.6918V16.6582Z" fill="#6117AB"/>
<line y1="-0.5" x2="13.7566" y2="-0.5" transform="matrix(0.662873 0.748732 -0.662873 0.748732 5.08301 29.3516)" stroke="#6117AB"/>
</g>
<g filter="url(#filter1_d_600_100)">
<line y1="-0.5" x2="74.4922" y2="-0.5" transform="matrix(1 0 0 -1 15.6191 64.3691)" stroke="#6117AB"/>
<line y1="-0.5" x2="16.3864" y2="-0.5" transform="matrix(0 -1 -1 0 15.6191 66.4297)" stroke="#6117AB"/>
<path fill-rule="evenodd" clip-rule="evenodd" d="M16.5277 51.3105L5.60059 38.968L6.1254 38.1168L16.7095 50.0719H16.5277V51.3105Z" fill="#6117AB"/>
<line y1="-0.5" x2="13.7566" y2="-0.5" transform="matrix(0.662873 -0.748732 -0.662873 -0.748732 5.91699 38.6191)" stroke="#6117AB"/>
</g>
<defs>
<filter id="filter0_d_600_100" x="0.764648" y="0.541016" width="92.5117" height="46.1113" filterUnits="userSpaceOnUse" color-interpolation-filters="sRGB">
<feFlood flood-opacity="0" result="BackgroundImageFix"/>
<feColorMatrix in="SourceAlpha" type="matrix" values="0 0 0 0 0 0 0 0 0 0 0 0 0 0 0 0 0 0 127 0" result="hardAlpha"/>
<feOffset dy="3"/>
<feGaussianBlur stdDeviation="2"/>
<feComposite in2="hardAlpha" operator="out"/>
<feColorMatrix type="matrix" values="0 0 0 0 0.501961 0 0 0 0 0.180392 0 0 0 0 0.827451 0 0 0 1 0"/>
<feBlend mode="normal" in2="BackgroundImageFix" result="effect1_dropShadow_600_100"/>
<feBlend mode="normal" in="SourceGraphic" in2="effect1_dropShadow_600_100" result="shape"/>
</filter>
<filter id="filter1_d_600_100" x="1.60059" y="27.3184" width="92.5107" height="46.1113" filterUnits="userSpaceOnUse" color-interpolation-filters="sRGB">
<feFlood flood-opacity="0" result="BackgroundImageFix"/>
<feColorMatrix in="SourceAlpha" type="matrix" values="0 0 0 0 0 0 0 0 0 0 0 0 0 0 0 0 0 0 127 0" result="hardAlpha"/>
<feOffset dy="3"/>
<feGaussianBlur stdDeviation="2"/>
<feComposite in2="hardAlpha" operator="out"/>
<feColorMatrix type="matrix" values="0 0 0 0 0.501961 0 0 0 0 0.180392 0 0 0 0 0.827451 0 0 0 0.9 0"/>
<feBlend mode="normal" in2="BackgroundImageFix" result="effect1_dropShadow_600_100"/>
<feBlend mode="normal" in="SourceGraphic" in2="effect1_dropShadow_600_100" result="shape"/>
</filter>
</defs>
</svg>
