<svg width="101" height="113" viewBox="0 0 101 113" fill="none" xmlns="http://www.w3.org/2000/svg">
<g filter="url(#filter0_d_30_395)">
<path d="M53.0312 106H48.6681H47.3591V92.4474L35.5788 104.193L33.3972 101.031L47.3591 87.0263V76.1842L35.5788 88.8333L33.3972 85.2193L47.3591 70.3114V61.2763L39.0693 69.8596L16.8175 92.4474L14.1996 88.8333L25.5437 77.0877H5.03711V74.3772H28.1615L35.5788 66.6974H17.6901V63.0833H40.8145L47.3591 55.8553V51.7895L39.0693 45.0132H17.6901V40.9474H35.5788L14.6359 18.8114L17.6901 17.0044L47.3591 47.7237V38.6886L32.5246 22.4254L35.5788 20.1667L47.3591 31.9123V22.4254L32.5246 6.16228L35.5788 3L48.6681 17.0044V3H53.0312V17.0044L66.1204 3L69.1746 6.16228L53.0312 22.4254V33.2675L66.1204 20.1667L69.1746 23.7807L53.0312 38.6886V48.6272L54.7764 46.8202L84.4454 15.1974L88.3722 18.8114L77.0282 30.1053H96.2258V33.2675H73.974L66.1204 40.9474H84.4454V45.0132H61.7574L53.0312 54.0482L61.7574 63.0833H84.4454V66.6974H66.1204L88.3722 87.9298L85.3181 92.4474L53.0312 59.0175V69.8596L69.1746 85.2193L66.1204 87.9298L53.0312 75.2807V86.1228L69.1746 102.386L66.1204 106L53.0312 92.4474V106Z" stroke="#541D8A" stroke-opacity="0.7" shape-rendering="crispEdges"/>
</g>
<defs>
<filter id="filter0_d_30_395" x="0.537109" y="0.273438" width="100.188" height="112.473" filterUnits="userSpaceOnUse" color-interpolation-filters="sRGB">
<feFlood flood-opacity="0" result="BackgroundImageFix"/>
<feColorMatrix in="SourceAlpha" type="matrix" values="0 0 0 0 0 0 0 0 0 0 0 0 0 0 0 0 0 0 127 0" result="hardAlpha"/>
<feOffset dy="2"/>
<feGaussianBlur stdDeviation="2"/>
<feComposite in2="hardAlpha" operator="out"/>
<feColorMatrix type="matrix" values="0 0 0 0 0.501961 0 0 0 0 0.180392 0 0 0 0 0.827451 0 0 0 0.5 0"/>
<feBlend mode="normal" in2="BackgroundImageFix" result="effect1_dropShadow_30_395"/>
<feBlend mode="normal" in="SourceGraphic" in2="effect1_dropShadow_30_395" result="shape"/>
</filter>
</defs>
</svg>
