<svg width="22" height="25" viewBox="0 0 22 25" fill="none" xmlns="http://www.w3.org/2000/svg">
<path d="M18.6239 4.32858C17.2217 3.68201 15.7181 3.20563 14.1459 2.93278C14.1173 2.92752 14.0887 2.94068 14.0739 2.967C13.8805 3.31266 13.6664 3.7636 13.5163 4.11803C11.8254 3.86361 10.1431 3.86361 8.48679 4.11803C8.33677 3.7557 8.11477 3.31266 7.92053 2.967C7.90579 2.94156 7.87717 2.9284 7.84856 2.93278C6.27726 3.20475 4.7736 3.68113 3.37053 4.32858C3.35839 4.33385 3.34798 4.34262 3.34104 4.35403C0.488943 8.63618 -0.292371 12.8131 0.0909151 16.9382C0.0926494 16.9583 0.103923 16.9776 0.119531 16.9899C2.00128 18.3787 3.82405 19.2218 5.61301 19.7806C5.64163 19.7894 5.67198 19.7789 5.69019 19.7552C6.11336 19.1744 6.49058 18.5621 6.81403 17.9181C6.83311 17.8804 6.8149 17.8357 6.77588 17.8207C6.17753 17.5926 5.60781 17.3145 5.05976 16.9987C5.0164 16.9733 5.01293 16.911 5.05282 16.8811C5.16816 16.7943 5.28349 16.7039 5.39362 16.6127C5.41356 16.596 5.44131 16.5925 5.46473 16.603C9.06519 18.255 12.9631 18.255 16.5211 16.603C16.5445 16.5916 16.5722 16.5951 16.593 16.6118C16.7032 16.703 16.8185 16.7943 16.9347 16.8811C16.9746 16.911 16.972 16.9733 16.9286 16.9987C16.3806 17.3207 15.8108 17.5926 15.2116 17.8199C15.1726 17.8348 15.1553 17.8804 15.1743 17.9181C15.5047 18.5612 15.882 19.1735 16.2973 19.7543C16.3147 19.7789 16.3459 19.7894 16.3745 19.7806C18.1721 19.2218 19.9949 18.3787 21.8767 16.9899C21.8931 16.9776 21.9035 16.9592 21.9053 16.939C22.364 12.17 21.137 8.02732 18.6525 4.3549C18.6465 4.34262 18.6361 4.33385 18.6239 4.32858ZM7.35167 14.4264C6.26772 14.4264 5.37454 13.4263 5.37454 12.1981C5.37454 10.9698 6.25037 9.96969 7.35167 9.96969C8.46164 9.96969 9.34615 10.9786 9.3288 12.1981C9.3288 13.4263 8.45297 14.4264 7.35167 14.4264ZM14.6619 14.4264C13.5779 14.4264 12.6847 13.4263 12.6847 12.1981C12.6847 10.9698 13.5606 9.96969 14.6619 9.96969C15.7718 9.96969 16.6563 10.9786 16.639 12.1981C16.639 13.4263 15.7718 14.4264 14.6619 14.4264Z" fill="white"/>
</svg>
