<svg width="919" height="405" viewBox="0 0 919 405" fill="none" xmlns="http://www.w3.org/2000/svg">
<path d="M29.64 129L2.34 38H19.76L38.61 103.65L58.37 38H73.06L92.95 103.65L111.93 38H129.22L102.05 129H85.15L65.78 64.65L46.41 129H29.64ZM140.233 129V38H200.813V52.82H157.393V74.92H192.233V89.74H157.393V114.05H202.243V129H140.233ZM304.531 129L296.731 107.81H261.631L253.831 129H236.151L271.121 38H287.241L322.341 129H304.531ZM267.091 93.25H291.531L279.311 59.97L267.091 93.25ZM397.214 104.69L399.424 129H382.394L380.184 106.64C379.837 103.173 378.537 100.357 376.284 98.19C374.117 95.9367 371.344 94.81 367.964 94.81H348.334V129H331.044V38H368.354C377.714 38 385.081 40.6 390.454 45.8C395.827 50.9133 398.514 57.6733 398.514 66.08C398.514 74.92 394.441 81.4633 386.294 85.71C392.881 89.87 396.521 96.1967 397.214 104.69ZM348.334 52.43V79.99H367.574C372.341 79.99 375.894 78.69 378.234 76.09C380.661 73.4033 381.874 70.0667 381.874 66.08C381.874 62.0933 380.661 58.8433 378.234 56.33C375.894 53.73 372.341 52.43 367.574 52.43H348.334ZM417.118 129V38H477.698V52.82H434.278V74.92H469.118V89.74H434.278V114.05H479.128V129H417.118ZM581.416 129L573.616 107.81H538.516L530.716 129H513.036L548.006 38H564.126L599.226 129H581.416ZM543.976 93.25H568.416L556.196 59.97L543.976 93.25Z" fill="#D8E6F3"/>
<path d="M279.79 379.04C271.557 379.04 264.06 377.35 257.3 373.97C250.627 370.59 245.167 365.347 240.92 358.24C236.76 351.047 234.68 342.467 234.68 332.5C234.68 317.767 239.013 306.327 247.68 298.18C256.433 290.033 267.137 285.96 279.79 285.96C290.797 285.96 300.07 288.907 307.61 294.8C315.237 300.607 319.657 308.233 320.87 317.68H302.93C302.323 312.653 299.853 308.58 295.52 305.46C291.187 302.34 285.943 300.78 279.79 300.78C271.557 300.78 264.84 303.553 259.64 309.1C254.527 314.647 251.97 322.447 251.97 332.5C251.97 342.553 254.527 350.353 259.64 355.9C264.84 361.36 271.557 364.09 279.79 364.09C286.03 364.09 291.317 362.53 295.65 359.41C300.07 356.29 302.67 352.26 303.45 347.32H320.61C319.743 356.767 315.497 364.437 307.87 370.33C300.33 376.137 290.97 379.04 279.79 379.04ZM390.756 287H407.916V378H390.756V338.87H350.196V378H333.036V287H350.196V323.92H390.756V287ZM485.781 378L477.981 356.81H442.881L435.081 378H417.401L452.371 287H468.491L503.591 378H485.781ZM448.341 342.25H472.781L460.561 308.97L448.341 342.25ZM512.294 378V287H548.824C558.184 287 565.551 289.6 570.924 294.8C576.384 300 579.114 306.803 579.114 315.21C579.114 323.617 576.384 330.42 570.924 335.62C565.551 340.82 558.184 343.42 548.824 343.42H529.584V378H512.294ZM529.584 328.99H548.044C552.811 328.99 556.364 327.69 558.704 325.09C561.131 322.49 562.344 319.197 562.344 315.21C562.344 311.223 561.131 307.93 558.704 305.33C556.364 302.73 552.811 301.43 548.044 301.43H529.584V328.99ZM610.263 378V301.82H582.703V287H654.853V301.82H627.423V378H610.263ZM663.241 378V287H723.821V301.82H680.401V323.92H715.241V338.74H680.401V363.05H725.251V378H663.241ZM804.821 353.69L807.031 378H790.001L787.791 355.64C787.445 352.173 786.145 349.357 783.891 347.19C781.725 344.937 778.951 343.81 775.571 343.81H755.941V378H738.651V287H775.961C785.321 287 792.688 289.6 798.061 294.8C803.435 299.913 806.121 306.673 806.121 315.08C806.121 323.92 802.048 330.463 793.901 334.71C800.488 338.87 804.128 345.197 804.821 353.69ZM755.941 301.43V328.99H775.181C779.948 328.99 783.501 327.69 785.841 325.09C788.268 322.403 789.481 319.067 789.481 315.08C789.481 311.093 788.268 307.843 785.841 305.33C783.501 302.73 779.948 301.43 775.181 301.43H755.941Z" fill="#D8E6F3"/>
<path d="M232.9 249L233.6 246.6C241.2 246.6 243.7 245 245.4 239.1L264.5 176.9C265.1 174.9 264.4 173.5 262 173.5H256.5C248.8 173.5 246.5 176.4 241.8 187.7H238.8L245.3 169H300L295.6 187.7H292.5C295 176.5 293.9 173.5 286.6 173.5H280C277.5 173.5 276.2 174.8 275.5 176.9L256.4 239.1C254.7 245 254.9 246.6 264.4 246.6L263.7 249H232.9ZM355.259 169L349.759 187.7H346.859C349.359 177.4 348.559 173.5 341.459 173.5H328.759C325.859 173.5 323.959 174.8 323.059 177.7L314.659 205.1H327.259C332.559 205.1 335.059 203 337.159 196.7H339.559L332.959 219.2H330.459C332.459 211.7 331.559 208.7 326.159 208.7H313.659L304.659 238.1C302.959 243.6 303.659 244.5 307.559 244.5H321.459C329.159 244.5 333.959 241.3 340.559 229.3L343.559 230.2L333.759 249H280.659L281.359 246.6C288.959 246.6 291.459 245 293.259 239.1L311.659 178.9C313.459 173 313.359 171.4 304.459 171.4L305.159 169H355.259ZM374.31 250.6C359.01 250.6 351.81 239.1 351.81 223.9C351.81 199.4 370.31 167.5 394.81 167.5C401.61 167.5 405.81 169.8 409.11 174C410.31 175.7 411.01 175.7 411.91 173.7L414.11 168.4L416.41 168.7L408.41 196.6H406.01C407.91 182.4 406.41 172 395.71 172C376.91 172 363.91 203.8 363.91 223.5C363.91 236.6 369.41 243.8 378.61 243.8C390.31 243.8 399.21 232.4 405.31 218.9H408.21C400.51 236.7 391.41 250.6 374.31 250.6ZM498.429 169L497.829 171.4C490.429 171.4 488.029 173 486.229 178.9L467.729 239.1C465.929 245 466.129 246.6 474.929 246.6L474.229 249H444.729L445.329 246.6C452.429 246.6 454.929 245 456.729 239.1L465.929 208.9H435.629L426.329 239.1C424.629 245 424.629 246.6 433.029 246.6L432.329 249H402.729L403.429 246.6C411.029 246.6 413.529 245 415.329 239.1L433.729 178.9C435.529 173 435.429 171.4 426.529 171.4L427.229 169H456.829L456.129 171.4C449.029 171.4 446.629 173 444.829 178.9L436.929 204.6H467.229L475.129 178.9C476.929 173 476.829 171.4 468.529 171.4L469.229 169H498.429ZM522.982 225.6H489.182L491.382 218.4H525.182L522.982 225.6ZM551.763 249H522.162L522.862 246.6C530.463 246.6 532.963 245 534.763 239.1L553.163 178.9C554.963 173 554.863 171.4 545.963 171.4L546.663 169H573.263C591.063 169 604.063 179.7 604.063 198.2C604.063 226.1 581.363 249 551.763 249ZM552.063 244.9C574.863 244.9 592.663 219.5 592.663 195.9C592.663 181.1 584.863 173 573.663 173C569.263 173 565.663 173.7 564.963 176.1L544.763 241.5C544.063 243.6 546.063 244.9 552.063 244.9ZM594.33 249L595.03 246.6C602.63 246.6 605.13 245 606.93 239.1L625.33 178.9C627.13 173 627.03 171.4 618.13 171.4L618.83 169H645.53C659.03 169 666.93 174.4 666.93 185.1C666.93 199 652.93 208.2 634.73 207.7L634.43 208.4C639.73 209 643.73 212.2 645.93 220.2L650.23 234.5C652.73 243.4 654.83 246.6 663.13 246.6L662.43 249H654.53C646.93 249 642.33 247.3 639.23 235.7L634.03 216.7C632.43 211.5 630.03 209.8 626.83 209.5L617.93 239.1C616.13 245 616.43 246.6 626.33 246.6L625.53 249H594.33ZM637.03 176.3L628.53 204.1C629.43 204.2 630.43 204.2 631.23 204.2C645.73 203.9 656.33 197 656.33 184.6C656.33 176.6 651.73 173 643.23 173C640.23 173 637.83 173.7 637.03 176.3ZM673.434 239.1L691.834 178.9C693.634 173 693.534 171.4 684.634 171.4L685.334 169H715.234L714.534 171.4C707.234 171.4 704.734 173 702.934 178.9L684.534 239.1C682.734 245 682.834 246.6 691.734 246.6L691.034 249H660.834L661.534 246.6C669.134 246.6 671.634 245 673.434 239.1ZM732.152 179.3L728.152 234H728.852L767.652 177.5C771.152 172.5 772.052 171.4 762.552 171.4L763.252 169H785.952L785.252 171.4C780.252 171.4 776.852 172.1 773.052 177.5L722.452 250.6H717.052L720.852 179.3C721.252 172.8 720.052 171.4 713.552 171.4L714.352 169H743.152L742.452 171.4C734.252 171.4 732.652 173.2 732.152 179.3ZM836.606 169L831.106 187.7H828.206C830.706 177.4 829.906 173.5 822.806 173.5H810.106C807.206 173.5 805.306 174.8 804.406 177.7L796.006 205.1H808.606C813.906 205.1 816.406 203 818.506 196.7H820.906L814.306 219.2H811.806C813.806 211.7 812.906 208.7 807.506 208.7H795.006L786.006 238.1C784.306 243.6 785.006 244.5 788.906 244.5H802.806C810.506 244.5 815.306 241.3 821.906 229.3L824.906 230.2L815.106 249H762.006L762.706 246.6C770.306 246.6 772.806 245 774.606 239.1L793.006 178.9C794.806 173 794.706 171.4 785.806 171.4L786.506 169H836.606ZM918.011 169L917.311 171.4C909.711 171.4 907.211 173 905.411 178.9L883.711 250H877.411L858.111 183.5L841.311 239.1C839.611 245 839.911 246.6 849.711 246.6L848.911 249H824.311L825.011 246.6C832.611 246.6 835.111 245 836.911 239.1L855.911 176.4C854.211 172.3 852.311 171.4 848.811 171.4L849.311 169H865.611L883.911 232.3H884.611L901.011 178.9C902.711 173 902.411 171.4 892.511 171.4L893.311 169H918.011Z" fill="#D8E6F3"/>
<path d="M623.9 105L622.56 101.44H616.62L615.28 105H613.14L618.64 91H620.56L626.06 105H623.9ZM617.32 99.62H621.88L619.6 93.6L617.32 99.62ZM627.545 105V91H629.865L636.605 101.78V91H638.685V105H636.385L629.625 94.24V105H627.545ZM646.139 105V91H648.219V105H646.139ZM651.061 105V91H653.381L660.121 101.78V91H662.201V105H659.901L653.141 94.24V105H651.061ZM665.045 105V91H669.345C671.385 91 673.072 91.62 674.405 92.86C675.738 94.0867 676.405 95.8 676.405 98C676.405 100.2 675.738 101.92 674.405 103.16C673.072 104.387 671.385 105 669.345 105H665.045ZM667.125 103.16H669.225C670.652 103.16 671.845 102.733 672.805 101.88C673.778 101.027 674.265 99.7333 674.265 98C674.265 96.2667 673.778 94.9733 672.805 94.12C671.845 93.2667 670.652 92.84 669.225 92.84H667.125V103.16ZM678.6 105V91H687.58V92.84H680.68V96.86H686.26V98.7H680.68V103.16H687.8V105H678.6ZM690.025 105V91H695.445C696.832 91 697.932 91.3933 698.745 92.18C699.559 92.9533 699.965 93.9667 699.965 95.22C699.965 96.4733 699.559 97.4933 698.745 98.28C697.932 99.0533 696.832 99.44 695.445 99.44H692.105V105H690.025ZM692.105 97.64H695.385C696.225 97.64 696.852 97.4133 697.265 96.96C697.679 96.5067 697.885 95.9267 697.885 95.22C697.885 94.5133 697.679 93.9333 697.265 93.48C696.852 93.0267 696.225 92.8 695.385 92.8H692.105V97.64ZM701.861 105V91H710.841V92.84H703.941V96.86H709.521V98.7H703.941V103.16H711.061V105H701.861ZM713.287 105V91H715.607L722.347 101.78V91H724.427V105H722.127L715.367 94.24V105H713.287ZM727.272 105V91H731.572C733.612 91 735.298 91.62 736.632 92.86C737.965 94.0867 738.632 95.8 738.632 98C738.632 100.2 737.965 101.92 736.632 103.16C735.298 104.387 733.612 105 731.572 105H727.272ZM729.352 103.16H731.452C732.878 103.16 734.072 102.733 735.032 101.88C736.005 101.027 736.492 99.7333 736.492 98C736.492 96.2667 736.005 94.9733 735.032 94.12C734.072 93.2667 732.878 92.84 731.452 92.84H729.352V103.16ZM740.826 105V91H749.806V92.84H742.906V96.86H748.486V98.7H742.906V103.16H750.026V105H740.826ZM752.252 105V91H754.572L761.312 101.78V91H763.392V105H761.092L754.332 94.24V105H752.252ZM769.416 105V92.84H765.036V91H775.876V92.84H771.496V105H769.416ZM620.62 129.16C618.7 129.16 617.08 128.54 615.76 127.3C614.44 126.047 613.78 124.28 613.78 122C613.78 120.467 614.107 119.147 614.76 118.04C615.413 116.933 616.247 116.127 617.26 115.62C618.273 115.1 619.393 114.84 620.62 114.84C622.207 114.84 623.567 115.273 624.7 116.14C625.847 117.007 626.513 118.127 626.7 119.5H624.52C624.4 118.673 623.967 118 623.22 117.48C622.487 116.947 621.613 116.68 620.6 116.68C619.2 116.68 618.067 117.147 617.2 118.08C616.347 119 615.92 120.307 615.92 122C615.92 123.693 616.347 125.007 617.2 125.94C618.067 126.86 619.2 127.32 620.6 127.32C621.64 127.32 622.533 127.053 623.28 126.52C624.027 125.987 624.453 125.313 624.56 124.5H626.66C626.513 125.873 625.873 126.993 624.74 127.86C623.62 128.727 622.247 129.16 620.62 129.16ZM636.696 122.36C637.79 123 638.376 124.02 638.456 125.42L638.736 129H636.716L636.436 125.6C636.383 124.973 636.163 124.467 635.776 124.08C635.39 123.68 634.903 123.48 634.316 123.48H630.816V129H628.736V115H634.216C635.616 115 636.723 115.387 637.536 116.16C638.35 116.92 638.756 117.933 638.756 119.2C638.756 120.613 638.07 121.667 636.696 122.36ZM630.816 116.8V121.64H634.156C635.01 121.64 635.643 121.407 636.056 120.94C636.47 120.473 636.676 119.893 636.676 119.2C636.676 118.507 636.47 117.933 636.056 117.48C635.643 117.027 635.01 116.8 634.156 116.8H630.816ZM641.803 129V115H650.783V116.84H643.883V120.86H649.463V122.7H643.883V127.16H651.003V129H641.803ZM662.709 129L661.369 125.44H655.429L654.089 129H651.949L657.449 115H659.369L664.869 129H662.709ZM656.129 123.62H660.689L658.409 117.6L656.129 123.62ZM667.698 129V116.84H663.318V115H674.158V116.84H669.778V129H667.698ZM675.65 129V115H677.73V129H675.65ZM684.512 129L679.292 115H681.392L685.532 126.5L689.692 115H691.792L686.572 129H684.512ZM693.346 129V115H702.326V116.84H695.426V120.86H701.006V122.7H695.426V127.16H702.546V129H693.346ZM715.581 129.16C713.661 129.16 712.041 128.54 710.721 127.3C709.401 126.047 708.741 124.28 708.741 122C708.741 120.467 709.068 119.147 709.721 118.04C710.374 116.933 711.208 116.127 712.221 115.62C713.234 115.1 714.354 114.84 715.581 114.84C717.168 114.84 718.528 115.273 719.661 116.14C720.808 117.007 721.474 118.127 721.661 119.5H719.481C719.361 118.673 718.928 118 718.181 117.48C717.448 116.947 716.574 116.68 715.561 116.68C714.161 116.68 713.028 117.147 712.161 118.08C711.308 119 710.881 120.307 710.881 122C710.881 123.693 711.308 125.007 712.161 125.94C713.028 126.86 714.161 127.32 715.561 127.32C716.601 127.32 717.494 127.053 718.241 126.52C718.988 125.987 719.414 125.313 719.521 124.5H721.621C721.474 125.873 720.834 126.993 719.701 127.86C718.581 128.727 717.208 129.16 715.581 129.16ZM730.017 129.16C728.017 129.16 726.357 128.48 725.037 127.12C723.717 125.76 723.057 124.053 723.057 122C723.057 119.947 723.717 118.24 725.037 116.88C726.357 115.52 728.017 114.84 730.017 114.84C732.004 114.84 733.657 115.52 734.977 116.88C736.297 118.24 736.957 119.947 736.957 122C736.957 124.053 736.297 125.76 734.977 127.12C733.657 128.48 732.004 129.16 730.017 129.16ZM726.557 125.82C727.477 126.82 728.631 127.32 730.017 127.32C731.404 127.32 732.551 126.82 733.457 125.82C734.377 124.807 734.837 123.533 734.837 122C734.837 120.467 734.377 119.2 733.457 118.2C732.551 117.187 731.404 116.68 730.017 116.68C728.631 116.68 727.477 117.187 726.557 118.2C725.637 119.2 725.177 120.467 725.177 122C725.177 123.533 725.637 124.807 726.557 125.82ZM739.186 129V115H741.746L746.206 126.16L750.666 115H753.226V129H751.226V118.58L747.046 129H745.366L741.166 118.58V129H739.186ZM756.061 129V115H758.621L763.081 126.16L767.541 115H770.101V129H768.101V118.58L763.921 129H762.241L758.041 118.58V129H756.061ZM781.956 127.82C780.982 128.713 779.682 129.16 778.056 129.16C776.429 129.16 775.129 128.713 774.156 127.82C773.182 126.913 772.696 125.673 772.696 124.1V115H774.696V124.16C774.696 125.147 775.002 125.92 775.616 126.48C776.229 127.027 777.042 127.3 778.056 127.3C779.082 127.3 779.902 127.027 780.516 126.48C781.129 125.92 781.436 125.147 781.436 124.16V115H783.436V124.1C783.436 125.673 782.942 126.913 781.956 127.82ZM786.022 129V115H788.342L795.082 125.78V115H797.162V129H794.862L788.102 118.24V129H786.022ZM800.006 129V115H802.086V129H800.006ZM808.108 129V116.84H803.728V115H814.568V116.84H810.188V129H808.108ZM819.737 129V123.16L814.837 115H817.157L820.777 121.18L824.417 115H826.737L821.817 123.16V129H819.737Z" fill="#D8E6F3"/>
<path d="M30.633 168V151.9H33.025V168H30.633ZM37.2132 168V151.9H39.8812L47.6322 164.297V151.9H50.0242V168H47.3792L39.6052 155.626V168H37.2132ZM54.2152 168V151.9H56.8832L64.6342 164.297V151.9H67.0262V168H64.3812L56.6072 155.626V168H54.2152ZM78.4852 168.184C76.1852 168.184 74.2762 167.402 72.7582 165.838C71.2402 164.274 70.4812 162.311 70.4812 159.95C70.4812 157.589 71.2402 155.626 72.7582 154.062C74.2762 152.498 76.1852 151.716 78.4852 151.716C80.7699 151.716 82.6712 152.498 84.1892 154.062C85.7072 155.626 86.4662 157.589 86.4662 159.95C86.4662 162.311 85.7072 164.274 84.1892 165.838C82.6712 167.402 80.7699 168.184 78.4852 168.184ZM74.5062 164.343C75.5642 165.493 76.8906 166.068 78.4852 166.068C80.0799 166.068 81.3986 165.493 82.4412 164.343C83.4992 163.178 84.0282 161.713 84.0282 159.95C84.0282 158.187 83.4992 156.73 82.4412 155.58C81.3986 154.415 80.0799 153.832 78.4852 153.832C76.8906 153.832 75.5642 154.415 74.5062 155.58C73.4482 156.73 72.9192 158.187 72.9192 159.95C72.9192 161.713 73.4482 163.178 74.5062 164.343ZM93.4465 168L87.4435 151.9H89.8585L94.6195 165.125L99.4035 151.9H101.819L95.8155 168H93.4465ZM113.293 168L111.752 163.906H104.921L103.38 168H100.919L107.244 151.9H109.452L115.777 168H113.293ZM105.726 161.813H110.97L108.348 154.89L105.726 161.813ZM119.951 168V154.016H114.914V151.9H127.38V154.016H122.343V168H119.951ZM130.016 168V151.9H140.343V154.016H132.408V158.639H138.825V160.755H132.408V165.884H140.596V168H130.016Z" fill="#D8E6F3"/>
<path d="M37.763 200.184C35.555 200.184 33.692 199.471 32.174 198.045C30.656 196.604 29.897 194.572 29.897 191.95C29.897 190.187 30.2727 188.669 31.024 187.396C31.7753 186.123 32.7337 185.196 33.899 184.613C35.0643 184.015 36.3523 183.716 37.763 183.716C39.5877 183.716 41.1517 184.214 42.455 185.211C43.7737 186.208 44.5403 187.496 44.755 189.075H42.248C42.11 188.124 41.6117 187.35 40.753 186.752C39.9097 186.139 38.9053 185.832 37.74 185.832C36.13 185.832 34.8267 186.369 33.83 187.442C32.8487 188.5 32.358 190.003 32.358 191.95C32.358 193.897 32.8487 195.408 33.83 196.481C34.8267 197.539 36.13 198.068 37.74 198.068C38.936 198.068 39.9633 197.761 40.822 197.148C41.6807 196.535 42.1713 195.76 42.294 194.825H44.709C44.5403 196.404 43.8043 197.692 42.501 198.689C41.213 199.686 39.6337 200.184 37.763 200.184ZM55.2849 200.184C52.9849 200.184 51.0759 199.402 49.5579 197.838C48.0399 196.274 47.2809 194.311 47.2809 191.95C47.2809 189.589 48.0399 187.626 49.5579 186.062C51.0759 184.498 52.9849 183.716 55.2849 183.716C57.5695 183.716 59.4709 184.498 60.9889 186.062C62.5069 187.626 63.2659 189.589 63.2659 191.95C63.2659 194.311 62.5069 196.274 60.9889 197.838C59.4709 199.402 57.5695 200.184 55.2849 200.184ZM51.3059 196.343C52.3639 197.493 53.6902 198.068 55.2849 198.068C56.8795 198.068 58.1982 197.493 59.2409 196.343C60.2989 195.178 60.8279 193.713 60.8279 191.95C60.8279 190.187 60.2989 188.73 59.2409 187.58C58.1982 186.415 56.8795 185.832 55.2849 185.832C53.6902 185.832 52.3639 186.415 51.3059 187.58C50.2479 188.73 49.7189 190.187 49.7189 191.95C49.7189 193.713 50.2479 195.178 51.3059 196.343ZM66.7484 200V183.9H71.6934C74.0394 183.9 75.9791 184.613 77.5124 186.039C79.0457 187.45 79.8124 189.42 79.8124 191.95C79.8124 194.48 79.0457 196.458 77.5124 197.884C75.9791 199.295 74.0394 200 71.6934 200H66.7484ZM69.1404 197.884H71.5554C73.1961 197.884 74.5684 197.393 75.6724 196.412C76.7917 195.431 77.3514 193.943 77.3514 191.95C77.3514 189.957 76.7917 188.469 75.6724 187.488C74.5684 186.507 73.1961 186.016 71.5554 186.016H69.1404V197.884ZM83.2563 200V183.9H93.5833V186.016H85.6483V190.639H92.0653V192.755H85.6483V197.884H93.8363V200H83.2563Z" fill="#D8E6F3"/>
<path d="M37.763 231.184C35.555 231.184 33.692 230.471 32.174 229.045C30.656 227.604 29.897 225.572 29.897 222.95C29.897 221.187 30.2727 219.669 31.024 218.396C31.7753 217.123 32.7337 216.196 33.899 215.613C35.0643 215.015 36.3523 214.716 37.763 214.716C39.5877 214.716 41.1517 215.214 42.455 216.211C43.7737 217.208 44.5403 218.496 44.755 220.075H42.248C42.11 219.124 41.6117 218.35 40.753 217.752C39.9097 217.139 38.9053 216.832 37.74 216.832C36.13 216.832 34.8267 217.369 33.83 218.442C32.8487 219.5 32.358 221.003 32.358 222.95C32.358 224.897 32.8487 226.408 33.83 227.481C34.8267 228.539 36.13 229.068 37.74 229.068C38.936 229.068 39.9633 228.761 40.822 228.148C41.6807 227.535 42.1713 226.76 42.294 225.825H44.709C44.5403 227.404 43.8043 228.692 42.501 229.689C41.213 230.686 39.6337 231.184 37.763 231.184ZM57.1709 223.364C58.4282 224.1 59.1029 225.273 59.1949 226.883L59.5169 231H57.1939L56.8719 227.09C56.8105 226.369 56.5575 225.787 56.1129 225.342C55.6682 224.882 55.1085 224.652 54.4339 224.652H50.4089V231H48.0169V214.9H54.3189C55.9289 214.9 57.2015 215.345 58.1369 216.234C59.0722 217.108 59.5399 218.273 59.5399 219.73C59.5399 221.355 58.7502 222.567 57.1709 223.364ZM50.4089 216.97V222.536H54.2499C55.2312 222.536 55.9595 222.268 56.4349 221.731C56.9102 221.194 57.1479 220.527 57.1479 219.73C57.1479 218.933 56.9102 218.273 56.4349 217.752C55.9595 217.231 55.2312 216.97 54.2499 216.97H50.4089ZM63.9632 231V214.9H74.2902V217.016H66.3552V221.639H72.7722V223.755H66.3552V228.884H74.5432V231H63.9632ZM88.9249 231L87.3839 226.906H80.5529L79.0119 231H76.5509L82.8759 214.9H85.0839L91.4089 231H88.9249ZM81.3579 224.813H86.6019L83.9799 217.89L81.3579 224.813ZM95.5823 231V217.016H90.5453V214.9H103.011V217.016H97.9743V231H95.5823ZM105.648 231V214.9H115.975V217.016H108.04V221.639H114.457V223.755H108.04V228.884H116.228V231H105.648Z" fill="#D8E6F3"/>
</svg>
