<svg width="87" height="90" viewBox="0 0 87 90" fill="none" xmlns="http://www.w3.org/2000/svg">
<path d="M53.6529 11.7321L42.5787 6.86795L38.1892 9.59647M25.4086 14.134L17.6223 19.5615L7.478 45.8388L19.1568 70.945M35.2718 78.2561L44.8416 82.6457L49.2466 80.4362M67.7517 18.0645L79.4459 43.6897L70.2788 69.4183L61.4998 74.8754M73.49 43.8675L64.4169 22.8394L42.7802 13.6153L22.6786 22.5274L13.9303 45.6461L23.9961 66.6446L44.5936 74.3413L65.6878 65.3995L73.49 43.8675Z" stroke="#888181"/>
<path d="M43.2596 32.5879V42.5189M39.6248 45.4982L43.2596 48.9741L47.4136 45.4982M35.4707 47.981L43.2596 55.4293L51.5677 47.981" stroke="#FCF9F9"/>
</svg>
