<svg width="91" height="88" viewBox="0 0 91 88" fill="none" xmlns="http://www.w3.org/2000/svg">
<path d="M78.2347 54.7612L83.3686 43.8093L80.7483 39.3544M76.525 26.4665L71.2899 18.5497L45.2687 7.76512L19.8842 18.8257M12.1807 34.757L7.55815 44.2164L9.65914 48.6742M71.5592 68.7007L45.6553 79.7641L20.1588 69.9698L14.9183 61.0599M45.6233 73.8055L66.8672 65.25L76.6183 43.8456L68.201 23.5319L45.3034 14.2202L24.0648 23.7689L15.8661 44.1718L24.2888 65.4786L45.6233 73.8055Z" stroke="#888181"/>
<path d="M45.2596 31.5879V41.5189M41.6248 44.4982L45.2596 47.9741L49.4136 44.4982M37.4707 46.981L45.2596 54.4293L53.5677 46.981" stroke="#FCF9F9"/>
</svg>
